<?xml version="1.0" encoding="UTF-8"?>
<svg id="kryonix" xmlns="http://www.w3.org/2000/svg" viewBox="0 0 512 512">
  <path id="k" d="M398.091178,38.236058c-10.968341-.540295-16.734811,8.126109-27.342955,11.302135-32.923906,9.857501-154.489085,9.562699-191.766126,5.840258-21.919371-2.188982-33.827021-7.581442-27.262348-31.466158-5.995178-6.233327-33.615799,21.257728-35.938718,28.469531-11.736294,36.435125,30.48471,39.556073,56.006223,37.434758-33.943648,36.773465-57.68411,95.267844-24.097687,140.093804,46.896043,62.589605,138.838711,10.776527,181.633232-31.259832l-5.737445,181.876802c-3.639736,22.015015-5.99203,44.591308-14.975792,65.238276-4.223219,9.705729-42.27276,61.475444-6.481094,36.490204,92.798048-64.779812,57.372698-296.333166,67.593718-396.501433,1.331329-21.22573,30.819728-24.036489,28.368991-47.518344ZM281.392852,209.419387c-40.673906,15.693038-86.28618,14.472216-104.446741-31.68385-7.864529-19.988297-8.045152-65.560704,9.260204-80.691415,14.421683-12.609334,89.810513-6.333693,113.183086-7.138015,12.230778-.421046,25.38338-5.415715,38.544199-2.965678-19.144982,54.795018,10.795411,96.498982-56.540748,122.478959Z" style="fill: gold;"/>
</svg>